<mxfile host="app.diagrams.net" modified="2021-07-15T03:12:04.089Z" agent="5.0 (Macintosh; Intel Mac OS X 10_15_5) AppleWebKit/537.36 (KHTML, like Gecko) Chrome/91.0.4472.114 Safari/537.36" etag="f_hr7h0hpHkaHAGNUUkF" version="14.7.6" type="github">
  <diagram id="Zz29KvzOq78j0moYJVUm" name="Page-1">
    <mxGraphModel dx="1298" dy="703" grid="1" gridSize="10" guides="1" tooltips="1" connect="1" arrows="1" fold="1" page="1" pageScale="1" pageWidth="827" pageHeight="1169" math="0" shadow="0">
      <root>
        <mxCell id="0" />
        <mxCell id="1" parent="0" />
        <mxCell id="R4TGRD4N5Q3tPwzsf0XQ-2" value="" style="shape=process;whiteSpace=wrap;html=1;backgroundOutline=1;" parent="1" vertex="1">
          <mxGeometry x="100" y="70" width="120" height="60" as="geometry" />
        </mxCell>
        <mxCell id="R4TGRD4N5Q3tPwzsf0XQ-3" value="Actor" style="shape=umlActor;verticalLabelPosition=bottom;verticalAlign=top;html=1;outlineConnect=0;" parent="1" vertex="1">
          <mxGeometry x="50" y="260" width="30" height="60" as="geometry" />
        </mxCell>
        <mxCell id="R4TGRD4N5Q3tPwzsf0XQ-7" style="edgeStyle=orthogonalEdgeStyle;rounded=0;orthogonalLoop=1;jettySize=auto;html=1;exitX=0.5;exitY=1;exitDx=0;exitDy=0;dashed=1;startArrow=none;startFill=0;" parent="1" source="R4TGRD4N5Q3tPwzsf0XQ-5" edge="1">
          <mxGeometry relative="1" as="geometry">
            <mxPoint x="155" y="1120" as="targetPoint" />
            <Array as="points">
              <mxPoint x="155" y="710" />
            </Array>
          </mxGeometry>
        </mxCell>
        <mxCell id="R4TGRD4N5Q3tPwzsf0XQ-5" value="小程序" style="html=1;fillColor=#dae8fc;strokeColor=#6c8ebf;" parent="1" vertex="1">
          <mxGeometry x="100" y="430" width="110" height="50" as="geometry" />
        </mxCell>
        <mxCell id="R4TGRD4N5Q3tPwzsf0XQ-6" value="" style="html=1;points=[];perimeter=orthogonalPerimeter;fillColor=#dae8fc;strokeColor=#6c8ebf;" parent="1" vertex="1">
          <mxGeometry x="149" y="519" width="10" height="561" as="geometry" />
        </mxCell>
        <mxCell id="R4TGRD4N5Q3tPwzsf0XQ-11" style="edgeStyle=orthogonalEdgeStyle;rounded=0;orthogonalLoop=1;jettySize=auto;html=1;dashed=1;" parent="1" source="R4TGRD4N5Q3tPwzsf0XQ-8" edge="1">
          <mxGeometry relative="1" as="geometry">
            <mxPoint x="377" y="1120" as="targetPoint" />
          </mxGeometry>
        </mxCell>
        <mxCell id="R4TGRD4N5Q3tPwzsf0XQ-8" value="wdk-youxuan-channel" style="html=1;fillColor=#dae8fc;strokeColor=#6c8ebf;" parent="1" vertex="1">
          <mxGeometry x="304" y="430" width="146" height="50" as="geometry" />
        </mxCell>
        <mxCell id="R4TGRD4N5Q3tPwzsf0XQ-12" style="edgeStyle=orthogonalEdgeStyle;rounded=0;orthogonalLoop=1;jettySize=auto;html=1;dashed=1;" parent="1" source="R4TGRD4N5Q3tPwzsf0XQ-9" edge="1">
          <mxGeometry relative="1" as="geometry">
            <mxPoint x="565" y="1122" as="targetPoint" />
          </mxGeometry>
        </mxCell>
        <mxCell id="R4TGRD4N5Q3tPwzsf0XQ-9" value="mmc-detail" style="html=1;fillColor=#dae8fc;strokeColor=#6c8ebf;" parent="1" vertex="1">
          <mxGeometry x="510" y="430" width="110" height="50" as="geometry" />
        </mxCell>
        <mxCell id="R4TGRD4N5Q3tPwzsf0XQ-13" style="edgeStyle=orthogonalEdgeStyle;rounded=0;orthogonalLoop=1;jettySize=auto;html=1;dashed=1;" parent="1" source="R4TGRD4N5Q3tPwzsf0XQ-10" edge="1">
          <mxGeometry relative="1" as="geometry">
            <mxPoint x="898" y="1120" as="targetPoint" />
          </mxGeometry>
        </mxCell>
        <mxCell id="R4TGRD4N5Q3tPwzsf0XQ-10" value="diamond" style="html=1;fillColor=#dae8fc;strokeColor=#6c8ebf;" parent="1" vertex="1">
          <mxGeometry x="843" y="430" width="110" height="50" as="geometry" />
        </mxCell>
        <mxCell id="R4TGRD4N5Q3tPwzsf0XQ-14" value="" style="html=1;points=[];perimeter=orthogonalPerimeter;fillColor=#dae8fc;strokeColor=#6c8ebf;" parent="1" vertex="1">
          <mxGeometry x="373" y="519" width="10" height="561" as="geometry" />
        </mxCell>
        <mxCell id="R4TGRD4N5Q3tPwzsf0XQ-16" value="5.2：返回详情数据" style="html=1;verticalAlign=bottom;endArrow=open;dashed=1;endSize=8;exitX=0;exitY=0.95;" parent="1" edge="1">
          <mxGeometry relative="1" as="geometry">
            <mxPoint x="160" y="1073" as="targetPoint" />
            <mxPoint x="373" y="1072.9499999999975" as="sourcePoint" />
          </mxGeometry>
        </mxCell>
        <mxCell id="R4TGRD4N5Q3tPwzsf0XQ-20" value="" style="html=1;points=[];perimeter=orthogonalPerimeter;fillColor=#dae8fc;strokeColor=#6c8ebf;" parent="1" vertex="1">
          <mxGeometry x="560" y="560" width="10" height="520" as="geometry" />
        </mxCell>
        <mxCell id="R4TGRD4N5Q3tPwzsf0XQ-21" value="1.1：转发HSF数据入参" style="html=1;verticalAlign=bottom;endArrow=block;entryX=0;entryY=0;exitX=1;exitY=0.071;exitDx=0;exitDy=0;exitPerimeter=0;" parent="1" source="R4TGRD4N5Q3tPwzsf0XQ-14" target="R4TGRD4N5Q3tPwzsf0XQ-20" edge="1">
          <mxGeometry relative="1" as="geometry">
            <mxPoint x="490" y="560" as="sourcePoint" />
          </mxGeometry>
        </mxCell>
        <mxCell id="R4TGRD4N5Q3tPwzsf0XQ-22" value="5.1：返回详情数据" style="html=1;verticalAlign=bottom;endArrow=open;dashed=1;endSize=8;exitX=0;exitY=0.95;" parent="1" source="R4TGRD4N5Q3tPwzsf0XQ-20" edge="1">
          <mxGeometry relative="1" as="geometry">
            <mxPoint x="384" y="1054" as="targetPoint" />
          </mxGeometry>
        </mxCell>
        <mxCell id="R4TGRD4N5Q3tPwzsf0XQ-23" value="" style="html=1;points=[];perimeter=orthogonalPerimeter;fillColor=#dae8fc;strokeColor=#6c8ebf;" parent="1" vertex="1">
          <mxGeometry x="565" y="590" width="10" height="40" as="geometry" />
        </mxCell>
        <mxCell id="R4TGRD4N5Q3tPwzsf0XQ-24" value="1.3：识别小程序来源" style="edgeStyle=orthogonalEdgeStyle;html=1;align=left;spacingLeft=2;endArrow=block;rounded=0;entryX=1;entryY=0;" parent="1" target="R4TGRD4N5Q3tPwzsf0XQ-23" edge="1">
          <mxGeometry relative="1" as="geometry">
            <mxPoint x="570" y="570" as="sourcePoint" />
            <Array as="points">
              <mxPoint x="600" y="570" />
            </Array>
          </mxGeometry>
        </mxCell>
        <mxCell id="R4TGRD4N5Q3tPwzsf0XQ-25" value="" style="html=1;points=[];perimeter=orthogonalPerimeter;fillColor=#dae8fc;strokeColor=#6c8ebf;" parent="1" vertex="1">
          <mxGeometry x="893" y="756" width="10" height="91" as="geometry" />
        </mxCell>
        <mxCell id="R4TGRD4N5Q3tPwzsf0XQ-26" value="3.1：取组件配置列表" style="html=1;verticalAlign=bottom;endArrow=block;" parent="1" edge="1">
          <mxGeometry relative="1" as="geometry">
            <mxPoint x="576" y="772" as="sourcePoint" />
            <mxPoint x="892" y="769" as="targetPoint" />
          </mxGeometry>
        </mxCell>
        <mxCell id="R4TGRD4N5Q3tPwzsf0XQ-27" value="3.2：返回不同&lt;br&gt;小程序组件配置列表" style="html=1;verticalAlign=bottom;endArrow=open;dashed=1;endSize=8;exitX=0.1;exitY=0.89;entryX=0.9;entryY=0.911;entryDx=0;entryDy=0;entryPerimeter=0;exitDx=0;exitDy=0;exitPerimeter=0;" parent="1" source="R4TGRD4N5Q3tPwzsf0XQ-25" edge="1">
          <mxGeometry relative="1" as="geometry">
            <mxPoint x="574" y="837.99" as="targetPoint" />
            <mxPoint x="720" y="838" as="sourcePoint" />
          </mxGeometry>
        </mxCell>
        <mxCell id="R4TGRD4N5Q3tPwzsf0XQ-31" value="" style="html=1;points=[];perimeter=orthogonalPerimeter;fillColor=#dae8fc;strokeColor=#6c8ebf;" parent="1" vertex="1">
          <mxGeometry x="565" y="765" width="10" height="90" as="geometry" />
        </mxCell>
        <mxCell id="R4TGRD4N5Q3tPwzsf0XQ-32" value="" style="html=1;points=[];perimeter=orthogonalPerimeter;fillColor=#dae8fc;strokeColor=#6c8ebf;" parent="1" vertex="1">
          <mxGeometry x="893" y="860" width="10" height="91" as="geometry" />
        </mxCell>
        <mxCell id="R4TGRD4N5Q3tPwzsf0XQ-33" value="3.3:取组件埋点配置列表" style="html=1;verticalAlign=bottom;endArrow=block;" parent="1" edge="1">
          <mxGeometry relative="1" as="geometry">
            <mxPoint x="576" y="872" as="sourcePoint" />
            <mxPoint x="891" y="872" as="targetPoint" />
          </mxGeometry>
        </mxCell>
        <mxCell id="R4TGRD4N5Q3tPwzsf0XQ-34" value="3.4:返回组件埋点配置列表" style="html=1;verticalAlign=bottom;endArrow=open;dashed=1;endSize=8;exitX=0;exitY=0.95;entryX=0.9;entryY=0.911;entryDx=0;entryDy=0;entryPerimeter=0;" parent="1" source="R4TGRD4N5Q3tPwzsf0XQ-32" target="R4TGRD4N5Q3tPwzsf0XQ-35" edge="1">
          <mxGeometry relative="1" as="geometry">
            <mxPoint x="580" y="947" as="targetPoint" />
          </mxGeometry>
        </mxCell>
        <mxCell id="R4TGRD4N5Q3tPwzsf0XQ-35" value="" style="html=1;points=[];perimeter=orthogonalPerimeter;fillColor=#dae8fc;strokeColor=#6c8ebf;" parent="1" vertex="1">
          <mxGeometry x="565" y="865" width="10" height="90" as="geometry" />
        </mxCell>
        <mxCell id="R4TGRD4N5Q3tPwzsf0XQ-37" value="" style="html=1;points=[];perimeter=orthogonalPerimeter;fillColor=#dae8fc;strokeColor=#6c8ebf;" parent="1" vertex="1">
          <mxGeometry x="565" y="667" width="10" height="73" as="geometry" />
        </mxCell>
        <mxCell id="R4TGRD4N5Q3tPwzsf0XQ-38" value="2：准备数据" style="edgeStyle=orthogonalEdgeStyle;html=1;align=left;spacingLeft=2;endArrow=block;rounded=0;entryX=1;entryY=0;" parent="1" target="R4TGRD4N5Q3tPwzsf0XQ-37" edge="1">
          <mxGeometry relative="1" as="geometry">
            <mxPoint x="570" y="647" as="sourcePoint" />
            <Array as="points">
              <mxPoint x="600" y="647" />
            </Array>
          </mxGeometry>
        </mxCell>
        <mxCell id="R4TGRD4N5Q3tPwzsf0XQ-40" value="1：获取详情数据" style="html=1;verticalAlign=bottom;endArrow=block;exitX=1;exitY=0.131;exitDx=0;exitDy=0;exitPerimeter=0;" parent="1" edge="1">
          <mxGeometry relative="1" as="geometry">
            <mxPoint x="159" y="531.0509999999999" as="sourcePoint" />
            <mxPoint x="372" y="531" as="targetPoint" />
          </mxGeometry>
        </mxCell>
        <mxCell id="R4TGRD4N5Q3tPwzsf0XQ-42" value="" style="html=1;points=[];perimeter=orthogonalPerimeter;fillColor=#dae8fc;strokeColor=#6c8ebf;" parent="1" vertex="1">
          <mxGeometry x="565" y="1000" width="10" height="40" as="geometry" />
        </mxCell>
        <mxCell id="R4TGRD4N5Q3tPwzsf0XQ-43" value="4:组装数据和埋点信息" style="edgeStyle=orthogonalEdgeStyle;html=1;align=left;spacingLeft=2;endArrow=block;rounded=0;entryX=1;entryY=0;" parent="1" target="R4TGRD4N5Q3tPwzsf0XQ-42" edge="1">
          <mxGeometry relative="1" as="geometry">
            <mxPoint x="570" y="980" as="sourcePoint" />
            <Array as="points">
              <mxPoint x="600" y="980" />
            </Array>
          </mxGeometry>
        </mxCell>
        <mxCell id="R4TGRD4N5Q3tPwzsf0XQ-45" style="edgeStyle=orthogonalEdgeStyle;rounded=0;orthogonalLoop=1;jettySize=auto;html=1;dashed=1;" parent="1" source="R4TGRD4N5Q3tPwzsf0XQ-46" edge="1">
          <mxGeometry relative="1" as="geometry">
            <mxPoint x="735" y="1122" as="targetPoint" />
          </mxGeometry>
        </mxCell>
        <mxCell id="R4TGRD4N5Q3tPwzsf0XQ-46" value="子链路系统" style="html=1;fillColor=#dae8fc;strokeColor=#6c8ebf;" parent="1" vertex="1">
          <mxGeometry x="680" y="430" width="110" height="50" as="geometry" />
        </mxCell>
        <mxCell id="R4TGRD4N5Q3tPwzsf0XQ-47" value="" style="html=1;points=[];perimeter=orthogonalPerimeter;fillColor=#dae8fc;strokeColor=#6c8ebf;" parent="1" vertex="1">
          <mxGeometry x="730" y="670" width="10" height="70" as="geometry" />
        </mxCell>
        <mxCell id="R4TGRD4N5Q3tPwzsf0XQ-49" value="2.1：请求子服务数据" style="html=1;verticalAlign=bottom;endArrow=block;" parent="1" edge="1">
          <mxGeometry width="80" relative="1" as="geometry">
            <mxPoint x="575" y="690" as="sourcePoint" />
            <mxPoint x="729" y="689" as="targetPoint" />
          </mxGeometry>
        </mxCell>
        <mxCell id="R4TGRD4N5Q3tPwzsf0XQ-54" value="2.2：返回子服务数据" style="html=1;verticalAlign=bottom;endArrow=open;dashed=1;endSize=8;exitX=0;exitY=0.714;exitDx=0;exitDy=0;exitPerimeter=0;" parent="1" source="R4TGRD4N5Q3tPwzsf0XQ-47" edge="1">
          <mxGeometry relative="1" as="geometry">
            <mxPoint x="655" y="720" as="sourcePoint" />
            <mxPoint x="575" y="720" as="targetPoint" />
          </mxGeometry>
        </mxCell>
      </root>
    </mxGraphModel>
  </diagram>
</mxfile>
